<svg xmlns="http://www.w3.org/2000/svg" width="351" height="351" viewBox="0 0 3509.38 3524.28" preserveAspectRatio="xMidYMid meet"><g fill="#d21615"><ellipse cx="1754.69" cy="1762.14" rx="1754.69" ry="1762.14" style="fill:#d21615;vector-effect:none"/></g><g fill="#fffefe"><path d="M1592.14 3375.59C1325.14 3347.59 1046.14 3242.59 828.14 3087.59 705.14 3000.59 521.14 2816.59 436.14 2695.59 54.14 2154.59 43.14 1428.59 406.14 880.59 906.14 127.59 1910.14-76.41 2654.14 424.59c367 247 621 637 694 1068 27 158 27 389 0 549-74 432-327 819-703 1072-299 202-692 300-1053 262zm270-190c37.85-3.38 75.64-7.7 113.17-13.63 34.16-5.4 68.21-11.83 101.82-19.97 49.11-11.9 97.83-25.71 145.63-42.13 41.3-14.18 81.84-30.65 121.65-48.58 35.19-15.85 69.67-33.34 103.41-52.08 33.07-18.36 65.5-37.96 96.9-59.05 37.85-25.43 74.64-52.55 110.08-81.24 30.18-24.44 59.12-50.43 87.17-77.29 24.24-23.22 47.6-47.39 70-72.39 25.6-28.58 50.22-58.08 73.49-88.59 23.89-31.33 46.43-63.72 67.76-96.84 18.34-28.49 35.47-57.77 51.71-87.51 14.88-27.24 28.93-54.96 41.84-83.18 16.84-36.79 32.56-74.14 46.41-112.15 15.12-41.51 28.46-83.71 39.97-126.37 7.84-29.07 14.27-58.54 19.78-88.14 6.06-32.61 10.82-65.47 14.57-98.42 3.85-33.81 6.37-67.78 8.12-101.77 1.37-26.63 1.93-53.31 1.87-79.98-0.07-29.48-0.66-58.97-2.48-88.39-2.5-40.32-6.01-80.63-11.57-120.64-4.93-35.46-11.45-70.73-19.28-105.66-6.66-29.72-14.78-59.12-23.51-88.3-8.08-27.01-16.99-53.79-26.69-80.26-10.29-28.07-21.44-55.84-33.4-83.24-10.95-25.09-22.57-49.91-35.09-74.25-16.76-32.61-34.71-64.62-53.54-96.08-11.66-19.47-24.05-38.51-36.77-57.31-13.34-19.72-27.17-39.1-41.44-58.16-12.77-17.05-25.98-33.78-39.5-50.24-12.5-15.21-25.31-30.17-38.46-44.83-15.17-16.91-30.7-33.49-46.61-49.7-14.55-14.83-29.45-29.32-44.65-43.47-16-14.9-32.3-29.48-48.97-43.61-18.99-16.1-38.36-31.77-58.14-46.9-19.54-14.95-39.51-29.35-59.77-43.31-17.38-11.97-35.05-23.53-52.98-34.66-21.27-13.19-42.87-25.85-64.74-38.02-16.77-9.34-33.75-18.32-50.96-26.84-25.93-12.83-52.2-25.02-78.74-36.53-17.84-7.73-35.9-14.98-54.1-21.84-23.3-8.78-46.78-17.11-70.5-24.72-25.1-8.05-50.36-15.69-75.93-22.13C2066.85 366.43 2023.75 356.44 1980.14 349.59 1828.42 325.47 1669.09 332.04 1525.89 350.91 1499.49 354.5 1473.22 359.18 1447.14 364.59c-10.47 2.17-20.82 4.89-31.17 7.54-17.57 4.51-35.11 9.15-52.52 14.24-22.28 6.52-44.45 13.43-66.43 20.91-22.45 7.64-44.72 15.84-66.8 24.48-18.47 7.23-36.76 14.94-54.93 22.91-14.77 6.48-29.41 13.26-43.94 20.26-14.56 7.01-29 14.27-43.32 21.75-13.15 6.87-26.19 13.93-39.1 21.24-16.7 9.46-33.26 19.2-49.59 29.28-15.44 9.53-30.7 19.35-45.74 29.5-17.33 11.69-34.44 23.73-51.26 36.15-16.47 12.16-32.72 24.65-48.6 37.57-20.49 16.67-40.56 33.88-60.22 51.53-13.98 12.55-27.65 25.46-41.04 38.65-17.52 17.27-34.63 34.98-51.38 53-10.87 11.69-21.45 23.64-31.85 35.75-12.87 14.99-25.46 30.23-37.79 45.67-8.8 11.01-17.46 22.13-25.82 33.48-17.9 24.3-35.32 48.98-52.09 74.08-10.22 15.29-20 30.87-29.55 46.58C512.68 1047.75 501.75 1066.46 491.14 1085.59c-7.5 13.45-14.76 27.25-21.8 41.35-13.49 27.05-26.29 55.79-37.85 84.35-11.64 28.76-22.04 58.03-31.71 87.5-8.13 24.76-15.41 49.8-22.12 74.99-7.19 26.98-13.55 54.19-19.4 81.49-4.14 19.32-7.82 38.75-11.13 58.23-4.14 24.35-7.73 48.8-10.92 73.29-1.97 15.1-3.66 30.24-5.07 45.4-2.24 24.09-4.16 48.22-5.4 72.38-1.23 23.88-1.91 47.79-2.02 71.7-0.1 22.6 0.28 45.21 1.3 67.79 1.09 24.3 2.88 48.57 5.14 72.8 1.23 13.23 2.7 26.44 4.58 39.59 3.77 26.49 7.91 52.96 13.41 79.14 8.36 39.85 18.39 79.38 29.73 118.49 9.05 31.21 19.63 61.97 30.54 92.58 4.97 13.95 10.36 27.76 15.92 41.49 7.82 19.33 15.9 38.56 24.51 57.56 9.88 21.81 20.24 43.4 31.13 64.73 10.1 19.78 20.66 39.33 31.69 58.61 12.22 21.36 24.96 42.43 38.21 63.17 12 18.78 24.49 37.26 37.34 55.46 11.92 16.88 24.19 33.52 36.89 49.83 15.98 20.52 32.34 40.77 49.44 60.38 21.83 25.04 44.46 49.41 67.8 73.06 17.88 18.11 36.37 35.63 55.29 52.66 20.57 18.53 41.47 36.75 63.25 53.84 38 29.8 77.1 58.29 117.48 84.77 30.32 19.88 61.6 38.34 93.52 55.53 38.1 20.51 77.19 39.2 116.77 56.7 22.71 10.04 45.86 19.11 69.18 27.67 28.14 10.33 56.53 20.07 85.28 28.55 37.62 11.11 75.63 21.08 114 29.24 40.63 8.64 81.69 15.31 122.85 20.83 26.29 3.53 52.72 6.25 79.2 7.85 36.64 2.22 73.39 3.11 110.09 2.46 31.35-0.56 62.68-2.67 93.91-5.46z"/><path d="m1446 1447c1166-549 0 0 1166-549L2059.14 2059.59 897.64 2618.09Z"/><ellipse cx="1751.6" cy="1761.51" rx="145.53" ry="146.9" style="fill:#d21615;stroke-width:0.98;vector-effect:none"/></g></svg>