<?xml version="1.0" encoding="UTF-8"?>
<svg width="714px" height="708px" version="1.0" viewBox="0 0 7140 7080" xmlns="http://www.w3.org/2000/svg" xmlns:cc="http://creativecommons.org/ns#" xmlns:dc="http://purl.org/dc/elements/1.1/" xmlns:rdf="http://www.w3.org/1999/02/22-rdf-syntax-ns#">
<metadata>
<rdf:RDF>
<cc:Work rdf:about="">
<dc:format>image/svg+xml</dc:format>
<dc:type rdf:resource="http://purl.org/dc/dcmitype/StillImage"/>
</cc:Work>
</rdf:RDF>
</metadata>
<g fill="#ffc000">
<path d="m3566 6898c-3-24-33-277-66-563s-62-533-65-550l-5-30h145c80 0 145 0 145 1 0 22-140 1177-143 1180s-7-14-11-38z"/>
<path d="m1883 6480c17-49 459-1066 465-1072 5-5 38 9 73 30 35 22 88 51 117 66 35 18 52 32 48 41-6 16-672 913-694 935-13 13-14 13-9 0z"/>
<path d="m4915 6021c-192-257-351-473-353-479s21-23 50-38c29-14 84-45 121-67s69-38 71-36c8 10 466 1082 463 1085-2 2-160-207-352-465z"/>
<path d="m3265 5663c-993-148-1753-943-1856-1940-16-157-7-433 20-583 122-695 564-1283 1194-1590 330-160 655-229 1025-217 331 11 609 80 896 224 219 110 368 215 545 388 364 353 583 791 647 1287 22 178 15 494-15 653-87 461-288 843-611 1165-339 337-758 544-1241 615-138 20-466 19-604-2z"/>
<path d="m1099 4905c254-190 466-346 471-348 12-3 151 226 142 234-9 9-1057 459-1068 459-4 0 200-155 455-345z"/>
<path d="m5965 5020c-291-126-529-233-528-237 5-23 136-228 144-225 9 2 902 663 924 683 6 6 6 9 0 9-6-1-248-104-540-230z"/>
<path d="m729 3626c-475-57-588-73-538-75 9-1 264-30 567-66s554-65 559-65c4 0 9 61 11 135l2 135-37-1c-21 0-275-29-564-63z"/>
<path d="m5826 3558c4-73 8-134 9-136 1-1 252 27 558 63 305 36 561 65 568 65s10 2 7 5c-6 6-1084 135-1125 135h-24z"/>
<path d="m1083 2197c-244-182-441-332-439-334 3-3 1013 430 1021 439 3 3-19 47-50 98-30 52-57 102-61 112-3 10-11 18-17 17-7 0-211-150-454-332z"/>
<path d="m5544 2417c-47-85-64.625-111.19-54.625-117.19 32-18 1014.6-438.81 1017.6-435.81 5 5-884 666-894 666-5-1-36-51-69-113z"/>
<path d="m2097 1133c-120-278-216-507-214-509 4-4 652 867 652 877 0 5-34 28-75 52s-91 53-110 65l-35 21z"/>
<path d="m4730 1574c-58-35-109-65-114-67-5-1 140-203 323-447 182-244 331-441 331-436 0 7-429 1008-433 1012-1 1-49-27-107-62z"/>
<path d="m3450 1230c3.6007-39.838 119-1053 125-1058 5-5 9 23 70 553 30 259 57 485 60 503l6 32h-131l-132.65-0.6629z"/>
</g>
</svg>
