<?xml version="1.0" encoding="UTF-8"?>
<svg width="602.2" height="689.09" version="1.0" viewBox="0 0 6021.9922 6890.9009" xmlns="http://www.w3.org/2000/svg" xmlns:cc="http://creativecommons.org/ns#" xmlns:dc="http://purl.org/dc/elements/1.1/" xmlns:rdf="http://www.w3.org/1999/02/22-rdf-syntax-ns#">
<metadata>
<rdf:RDF>
<cc:Work rdf:about="">
<dc:format>image/svg+xml</dc:format>
<dc:type rdf:resource="http://purl.org/dc/dcmitype/StillImage"/>
<dc:title/>
</cc:Work>
</rdf:RDF>
</metadata>
<g fill="#002060" fill-rule="evenodd">
<path d="m5081 5008.9a941 941 0 0 0 -941 941 941 941 0 0 0 941 941 941 941 0 0 0 941 -941 941 941 0 0 0 -941 -941zm0 75.195a865.81 865.81 0 0 1 865.8 865.8 865.81 865.81 0 0 1 -865.8 865.82 865.81 865.81 0 0 1 -865.82 -865.82 865.81 865.81 0 0 1 865.82 -865.8z"/>
<path d="m3701 5008.9a941 941 0 0 0 -941 941 941 941 0 0 0 941 941 941 941 0 0 0 941 -941 941 941 0 0 0 -941 -941zm0 75.195a865.81 865.81 0 0 1 865.8 865.8 865.81 865.81 0 0 1 -865.8 865.82 865.81 865.81 0 0 1 -865.82 -865.82 865.81 865.81 0 0 1 865.82 -865.8z"/>
<path d="m2321 5008.9a941 941 0 0 0 -941 941 941 941 0 0 0 941 941 941 941 0 0 0 941 -941 941 941 0 0 0 -941 -941zm0 75.195a865.81 865.81 0 0 1 865.8 865.8 865.81 865.81 0 0 1 -865.8 865.82 865.81 865.81 0 0 1 -865.82 -865.82 865.81 865.81 0 0 1 865.82 -865.8z"/>
<path d="m941 5008.9a941 941 0 0 0 -941 941 941 941 0 0 0 941 941 941 941 0 0 0 941 -941 941 941 0 0 0 -941 -941zm0 75.195a865.81 865.81 0 0 1 865.8 865.8 865.81 865.81 0 0 1 -865.8 865.82 865.81 865.81 0 0 1 -865.82 -865.82 865.81 865.81 0 0 1 865.82 -865.8z"/>
</g>
<g transform="translate(-83.859 -139)" fill="#f00">
<path d="m2179 3056-1438.3-1116.1 1787.3 0.068l556-1801 560 1801 1805 5-1459 1120 548 1785-1462-1091-1444.2 1098 547.21-1801z"/>
</g>
</svg>
