<?xml version="1.0" encoding="UTF-8"?>
<svg width="315px" height="315px" version="1.0" viewBox="0 0 3150 3150" xmlns="http://www.w3.org/2000/svg" xmlns:cc="http://creativecommons.org/ns#" xmlns:dc="http://purl.org/dc/elements/1.1/" xmlns:rdf="http://www.w3.org/1999/02/22-rdf-syntax-ns#">
<metadata>
<rdf:RDF>
<cc:Work rdf:about="">
<dc:format>image/svg+xml</dc:format>
<dc:type rdf:resource="http://purl.org/dc/dcmitype/StillImage"/>
</cc:Work>
</rdf:RDF>
</metadata>
<g fill="#ff011b">
<path d="m1185 3008c-184-44-331-113-470-219-68-53-190-167-242-228-60.421-77.228-166.51-211.97-194.5-275.99-1.9634-4.5984-13.497-22.005-21.497-42.005-8-21-26-63-40-93-39-85-88-255-103-355-18-119-18-357 1-472 17-102 66-262 113-366 122.83-272.3 340.62-490.92 566-645 106-71 325-163 466-195 257-59 553-44 800 39 159 54 274 115 454 240 41 29 172 158 216 213 19 24 47 57 61 75 55 67 156 252 191 350 47.861 115.34 73.787 240.81 93 358 43 276-14 596-154 864-83 158-151 249-284 380-120 119-229 201-347 264-104 55-149 73-259 99-102 25-185 27-272 4l-66-17 66-50c36-27 86-67 110-88 26-22 58-40 80-43 220-35 454-190 644-426 64-80 144-208 167-269 8-19 24-57 36-85 40-91 84-328 84-454-6.9737-189.33-50.007-358.04-115-516-59.885-143.13-154.09-273.64-266-386-182-181-415-308-655-356-133-26-385-24-522 6-90 19-298 93-312 111-3 3-30 19-60 34-60 31-96 56-180 126-30 25-63 52-73 60-31 25-151 171-189 230-93 143-167 339-188 498-15 110-8 367 13 457 45 189 140 396 245 533 60 79 195 212 264 260 75 53 200 118 283 148 67 24 95 28 175 28 110-1 159-19 284-103 140-95 449-401 571-565 81-110 155-244 180-326 28-91 21-226-16-304-25-55-110-150-152-171-122-62-206-70-314-30-75 29-106 50-178 124-71 73-94 71-182-15-72-71-96-86-181-115-175-60-381 42-457 226-73 181-9 380 215 665 82 105 212 238 335 345 50 42 94 81 99 86 20 18-74 74-152 89-44 8-49 7-88-26-63-51-253-241-315-314-160-189-251-344-305-515-39-127-39-248 0-360 13.377-66.409 55.497-120.79 87-170 60-92 154-168 262-213 50-20 84-26 172-30 134-5 210 11 330 68 46 22 92 40 101 40s46-16 80-35c177-99 430-101 589-4 54 33 139 108 180 159 103.09 146.32 140.48 331.74 106 502-23 106-98 262-190 393-94 133-293 351-441 480-151.03 128.2-291.65 259.79-470 310-94 26-191 31-265 13z"/>
</g>
</svg>
