<?xml version="1.0" encoding="UTF-8" standalone="no"?>
<!-- Created with Inkscape (http://www.inkscape.org/) -->

<svg
   xmlns:dc="http://purl.org/dc/elements/1.1/"
   xmlns:cc="http://creativecommons.org/ns#"
   xmlns:rdf="http://www.w3.org/1999/02/22-rdf-syntax-ns#"
   xmlns:svg="http://www.w3.org/2000/svg"
   xmlns="http://www.w3.org/2000/svg"
   xmlns:sodipodi="http://sodipodi.sourceforge.net/DTD/sodipodi-0.dtd"
   xmlns:inkscape="http://www.inkscape.org/namespaces/inkscape"
   width="158.485mm"
   height="158.485mm"
   viewBox="0 0 158.485 158.485"
   version="1.1"
   id="svg8"
   inkscape:version="0.92.5 (2060ec1f9f, 2020-04-08)"
   sodipodi:docname="SPP logo.svg">
  <defs
     id="defs2" />
  <sodipodi:namedview
     id="base"
     pagecolor="#ffffff"
     bordercolor="#666666"
     borderopacity="1.0"
     inkscape:pageopacity="0.0"
     inkscape:pageshadow="2"
     inkscape:zoom="1.4156966"
     inkscape:cx="299.49922"
     inkscape:cy="299.49921"
     inkscape:document-units="mm"
     inkscape:current-layer="layer1"
     showgrid="false"
     inkscape:snap-bbox="true"
     inkscape:bbox-paths="true"
     inkscape:bbox-nodes="true"
     inkscape:snap-bbox-edge-midpoints="true"
     inkscape:snap-bbox-midpoints="true"
     inkscape:object-paths="true"
     inkscape:snap-intersection-paths="true"
     inkscape:snap-midpoints="true"
     inkscape:snap-smooth-nodes="true"
     inkscape:snap-object-midpoints="true"
     inkscape:snap-center="true"
     inkscape:snap-text-baseline="true"
     inkscape:snap-page="true"
     inkscape:snap-global="false"
     fit-margin-top="0"
     fit-margin-left="0"
     fit-margin-right="0"
     fit-margin-bottom="0"
     inkscape:window-width="1920"
     inkscape:window-height="1017"
     inkscape:window-x="-8"
     inkscape:window-y="-8"
     inkscape:window-maximized="1"
     showguides="true"
     inkscape:guide-bbox="true" />
  <metadata
     id="metadata5">
    <rdf:RDF>
      <cc:Work
         rdf:about="">
        <dc:format>image/svg+xml</dc:format>
        <dc:type
           rdf:resource="http://purl.org/dc/dcmitype/StillImage" />
        <dc:title />
      </cc:Work>
    </rdf:RDF>
  </metadata>
  <g
     inkscape:label="Layer 1"
     inkscape:groupmode="layer"
     id="layer1"
     transform="translate(95.163689,-11.70742)">
    <circle
       style="opacity:1;fill:#ffffff;fill-opacity:1;stroke:#2f3a8e;stroke-width:9.53670979;stroke-linecap:butt;stroke-linejoin:miter;stroke-miterlimit:4;stroke-dasharray:none;stroke-dashoffset:30;stroke-opacity:1"
       id="path21-1"
       cx="-15.921188"
       cy="90.949921"
       r="74.474144" />
    <path
       inkscape:export-ydpi="38.750164"
       inkscape:export-xdpi="38.750164"
       inkscape:transform-center-x="-13.686993"
       transform="matrix(0.37296812,-0.64599971,-0.64599971,-0.37296812,51.826304,153.10932)"
       inkscape:transform-center-y="-0.49391382"
       d="M 101.37033,163.39851 54.226191,153.3745 30.1299,195.1168 25.094963,147.18247 -22.050481,137.16461 21.981892,117.56358 16.940697,69.629909 49.189137,105.45013 93.218952,85.843353 69.11721,127.5825 Z"
       inkscape:randomized="0"
       inkscape:rounded="0"
       inkscape:flatsided="false"
       sodipodi:arg2="1.1519173"
       sodipodi:arg1="0.52359878"
       sodipodi:r2="25.334114"
       sodipodi:r1="66.335754"
       sodipodi:cy="130.23064"
       sodipodi:cx="43.921879"
       sodipodi:sides="5"
       id="path4518-1-4"
       style="opacity:1;fill:#e83533;fill-opacity:1;fill-rule:nonzero;stroke:none;stroke-width:0.30000001;stroke-linecap:square;stroke-linejoin:round;stroke-miterlimit:4;stroke-dasharray:none;stroke-dashoffset:0;stroke-opacity:1"
       sodipodi:type="star" />
    <g
       aria-label="SPP"
       style="font-style:normal;font-variant:normal;font-weight:normal;font-stretch:normal;font-size:28.49022102px;line-height:1.25;font-family:'Ma Shan Zheng';-inkscape-font-specification:'Ma Shan Zheng';font-variant-ligatures:normal;font-variant-caps:normal;font-variant-numeric:normal;text-align:start;letter-spacing:0px;word-spacing:0px;writing-mode:lr-tb;text-anchor:start;fill:#2f3a8e;fill-opacity:1;stroke:none;stroke-width:0.71225554"
       id="text66">
      <path
         d="m -43.284598,136.67432 4.006437,-0.38951 q 0.361693,2.01713 1.460681,2.96309 1.112899,0.94596 2.990916,0.94596 1.989308,0 2.990917,-0.83467 1.015521,-0.84859 1.015521,-1.9754 0,-0.72338 -0.431249,-1.22419 -0.417337,-0.51471 -1.474591,-0.89031 -0.723385,-0.25041 -3.296964,-0.89032 -3.310876,-0.82077 -4.646355,-2.01713 -1.878017,-1.68326 -1.878017,-4.10382 0,-1.55806 0.876408,-2.90745 0.890319,-1.3633 2.545757,-2.07277 1.669349,-0.70948 4.020349,-0.70948 3.839502,0 5.773165,1.68326 1.947573,1.68326 2.044952,4.49333 l -4.117727,0.18085 q -0.264314,-1.57197 -1.140722,-2.25362 -0.862497,-0.69556 -2.601402,-0.69556 -1.79455,0 -2.810071,0.73729 -0.653828,0.47298 -0.653828,1.26593 0,0.72338 0.612095,1.2381 0.779029,0.65382 3.783857,1.3633 3.004828,0.70947 4.437686,1.47459 1.446769,0.75121 2.253621,2.07277 0.820763,1.30766 0.820763,3.24132 0,1.75282 -0.973787,3.28306 -0.973787,1.53023 -2.754425,2.28144 -1.780639,0.73729 -4.437686,0.73729 -3.867325,0 -5.9401,-1.78063 -2.072775,-1.79455 -2.476201,-5.21672 z"
         style="font-style:normal;font-variant:normal;font-weight:bold;font-stretch:normal;font-family:Arial;-inkscape-font-specification:'Arial Bold';fill:#2f3a8e;fill-opacity:1;stroke-width:0.71225554"
         id="path68" />
      <path
         d="M -23.210678,143.30998 V 122.9161 h 6.607839 q 3.756035,0 4.896757,0.30605 1.7528163,0.45907 2.9352718,2.00322 1.1824554,1.53024 1.1824554,3.9647 0,1.87802 -0.6816508,3.15785 -0.6816508,1.27984 -1.7389054,2.01713 -1.043343,0.72339 -2.128419,0.95988 -1.474592,0.29214 -4.270751,0.29214 h -2.68487 v 7.69291 z m 4.117727,-16.94389 v 5.78708 h 2.253621 q 2.434467,0 3.25523,-0.31996 0.820764,-0.31996 1.279835,-1.00161 0.472982,-0.68165 0.472982,-1.58588 0,-1.1129 -0.653829,-1.83629 -0.653828,-0.72338 -1.655437,-0.90423 -0.737296,-0.13911 -2.963094,-0.13911 z"
         style="font-style:normal;font-variant:normal;font-weight:bold;font-stretch:normal;font-family:Arial;-inkscape-font-specification:'Arial Bold';fill:#2f3a8e;fill-opacity:1;stroke-width:0.71225554"
         id="path70" />
      <path
         d="M -4.1801014,143.30998 V 122.9161 h 6.6078393 q 3.756035,0 4.8967568,0.30605 1.7528163,0.45907 2.9352713,2.00322 1.182456,1.53024 1.182456,3.9647 0,1.87802 -0.681651,3.15785 -0.681651,1.27984 -1.738905,2.01713 -1.043343,0.72339 -2.1284198,0.95988 -1.4745915,0.29214 -4.2707509,0.29214 h -2.68486946 v 7.69291 z m 4.11772724,-16.94389 v 5.78708 H 2.1912468 q 2.4344672,0 3.2552304,-0.31996 0.8207632,-0.31996 1.2798341,-1.00161 0.4729822,-0.68165 0.4729822,-1.58588 0,-1.1129 -0.6538283,-1.83629 -0.6538283,-0.72338 -1.6554377,-0.90423 -0.7372957,-0.13911 -2.9630942,-0.13911 z"
         style="font-style:normal;font-variant:normal;font-weight:bold;font-stretch:normal;font-family:Arial;-inkscape-font-specification:'Arial Bold';fill:#2f3a8e;fill-opacity:1;stroke-width:0.71225554"
         id="path72" />
    </g>
  </g>
</svg>
